<mxfile host="app.diagrams.net" modified="2024-07-11T23:43:20.634Z" agent="Mozilla/5.0 (Windows NT 10.0; Win64; x64) AppleWebKit/537.36 (KHTML, like Gecko) Chrome/126.0.0.0 Safari/537.36" etag="YJiZ4odh53TAqcNJgdwQ" version="24.6.5" type="device">
  <diagram name="PÃ¡gina-1" id="WOEH-YqvVnPREmRUrctT">
    <mxGraphModel dx="203" dy="514" grid="0" gridSize="10" guides="1" tooltips="1" connect="1" arrows="1" fold="1" page="0" pageScale="1" pageWidth="827" pageHeight="1169" math="0" shadow="0">
      <root>
        <mxCell id="0" />
        <mxCell id="1" parent="0" />
        <mxCell id="5RmNxxyLQUuVd_kvsn41-1" value="&amp;lt;&amp;lt;interface&amp;gt;&amp;gt;&lt;br&gt;ReprodutorMusical" style="swimlane;fontStyle=0;childLayout=stackLayout;horizontal=1;startSize=50;horizontalStack=0;resizeParent=1;resizeParentMax=0;resizeLast=0;collapsible=1;marginBottom=0;whiteSpace=wrap;html=1;" vertex="1" parent="1">
          <mxGeometry x="400" y="80" width="240" height="140" as="geometry" />
        </mxCell>
        <mxCell id="5RmNxxyLQUuVd_kvsn41-2" value="+ tocar(): void" style="text;strokeColor=none;fillColor=none;align=left;verticalAlign=middle;spacingLeft=4;spacingRight=4;overflow=hidden;points=[[0,0.5],[1,0.5]];portConstraint=eastwest;rotatable=0;whiteSpace=wrap;html=1;" vertex="1" parent="5RmNxxyLQUuVd_kvsn41-1">
          <mxGeometry y="50" width="240" height="30" as="geometry" />
        </mxCell>
        <mxCell id="5RmNxxyLQUuVd_kvsn41-3" value="+ pausar(): void" style="text;strokeColor=none;fillColor=none;align=left;verticalAlign=middle;spacingLeft=4;spacingRight=4;overflow=hidden;points=[[0,0.5],[1,0.5]];portConstraint=eastwest;rotatable=0;whiteSpace=wrap;html=1;" vertex="1" parent="5RmNxxyLQUuVd_kvsn41-1">
          <mxGeometry y="80" width="240" height="30" as="geometry" />
        </mxCell>
        <mxCell id="5RmNxxyLQUuVd_kvsn41-4" value="+ selecionarMusica(String musica): void" style="text;strokeColor=none;fillColor=none;align=left;verticalAlign=middle;spacingLeft=4;spacingRight=4;overflow=hidden;points=[[0,0.5],[1,0.5]];portConstraint=eastwest;rotatable=0;whiteSpace=wrap;html=1;" vertex="1" parent="5RmNxxyLQUuVd_kvsn41-1">
          <mxGeometry y="110" width="240" height="30" as="geometry" />
        </mxCell>
        <mxCell id="5RmNxxyLQUuVd_kvsn41-5" value="&amp;lt;&amp;lt;interface&amp;gt;&amp;gt;&lt;br&gt;AparelhoTelefonico" style="swimlane;fontStyle=0;childLayout=stackLayout;horizontal=1;startSize=50;horizontalStack=0;resizeParent=1;resizeParentMax=0;resizeLast=0;collapsible=1;marginBottom=0;whiteSpace=wrap;html=1;" vertex="1" parent="1">
          <mxGeometry x="720" y="80" width="240" height="140" as="geometry" />
        </mxCell>
        <mxCell id="5RmNxxyLQUuVd_kvsn41-6" value="+ ligar(String numero): void" style="text;strokeColor=none;fillColor=none;align=left;verticalAlign=middle;spacingLeft=4;spacingRight=4;overflow=hidden;points=[[0,0.5],[1,0.5]];portConstraint=eastwest;rotatable=0;whiteSpace=wrap;html=1;" vertex="1" parent="5RmNxxyLQUuVd_kvsn41-5">
          <mxGeometry y="50" width="240" height="30" as="geometry" />
        </mxCell>
        <mxCell id="5RmNxxyLQUuVd_kvsn41-7" value="+ atender(): void" style="text;strokeColor=none;fillColor=none;align=left;verticalAlign=middle;spacingLeft=4;spacingRight=4;overflow=hidden;points=[[0,0.5],[1,0.5]];portConstraint=eastwest;rotatable=0;whiteSpace=wrap;html=1;" vertex="1" parent="5RmNxxyLQUuVd_kvsn41-5">
          <mxGeometry y="80" width="240" height="30" as="geometry" />
        </mxCell>
        <mxCell id="5RmNxxyLQUuVd_kvsn41-8" value="+ iniciarCorreioVoz(): void" style="text;strokeColor=none;fillColor=none;align=left;verticalAlign=middle;spacingLeft=4;spacingRight=4;overflow=hidden;points=[[0,0.5],[1,0.5]];portConstraint=eastwest;rotatable=0;whiteSpace=wrap;html=1;" vertex="1" parent="5RmNxxyLQUuVd_kvsn41-5">
          <mxGeometry y="110" width="240" height="30" as="geometry" />
        </mxCell>
        <mxCell id="5RmNxxyLQUuVd_kvsn41-9" value="&amp;lt;&amp;lt;interface&amp;gt;&amp;gt;&lt;br&gt;NavegadorNaInternet" style="swimlane;fontStyle=0;childLayout=stackLayout;horizontal=1;startSize=50;horizontalStack=0;resizeParent=1;resizeParentMax=0;resizeLast=0;collapsible=1;marginBottom=0;whiteSpace=wrap;html=1;" vertex="1" parent="1">
          <mxGeometry x="1040" y="80" width="240" height="140" as="geometry" />
        </mxCell>
        <mxCell id="5RmNxxyLQUuVd_kvsn41-10" value="+ exibirPagina(String url): void" style="text;strokeColor=none;fillColor=none;align=left;verticalAlign=middle;spacingLeft=4;spacingRight=4;overflow=hidden;points=[[0,0.5],[1,0.5]];portConstraint=eastwest;rotatable=0;whiteSpace=wrap;html=1;" vertex="1" parent="5RmNxxyLQUuVd_kvsn41-9">
          <mxGeometry y="50" width="240" height="30" as="geometry" />
        </mxCell>
        <mxCell id="5RmNxxyLQUuVd_kvsn41-11" value="+ adicionarNovaAba(): void" style="text;strokeColor=none;fillColor=none;align=left;verticalAlign=middle;spacingLeft=4;spacingRight=4;overflow=hidden;points=[[0,0.5],[1,0.5]];portConstraint=eastwest;rotatable=0;whiteSpace=wrap;html=1;" vertex="1" parent="5RmNxxyLQUuVd_kvsn41-9">
          <mxGeometry y="80" width="240" height="30" as="geometry" />
        </mxCell>
        <mxCell id="5RmNxxyLQUuVd_kvsn41-12" value="+ atualizarPagina(): void" style="text;strokeColor=none;fillColor=none;align=left;verticalAlign=middle;spacingLeft=4;spacingRight=4;overflow=hidden;points=[[0,0.5],[1,0.5]];portConstraint=eastwest;rotatable=0;whiteSpace=wrap;html=1;" vertex="1" parent="5RmNxxyLQUuVd_kvsn41-9">
          <mxGeometry y="110" width="240" height="30" as="geometry" />
        </mxCell>
        <mxCell id="5RmNxxyLQUuVd_kvsn41-22" style="edgeStyle=orthogonalEdgeStyle;rounded=0;orthogonalLoop=1;jettySize=auto;html=1;exitX=0.5;exitY=0;exitDx=0;exitDy=0;" edge="1" parent="1" source="5RmNxxyLQUuVd_kvsn41-15">
          <mxGeometry relative="1" as="geometry">
            <mxPoint x="839.8571428571431" y="240" as="targetPoint" />
          </mxGeometry>
        </mxCell>
        <mxCell id="5RmNxxyLQUuVd_kvsn41-15" value="iPhone" style="swimlane;fontStyle=0;childLayout=stackLayout;horizontal=1;startSize=50;horizontalStack=0;resizeParent=1;resizeParentMax=0;resizeLast=0;collapsible=1;marginBottom=0;whiteSpace=wrap;html=1;" vertex="1" parent="1">
          <mxGeometry x="720" y="370" width="240" height="80" as="geometry" />
        </mxCell>
        <mxCell id="5RmNxxyLQUuVd_kvsn41-20" style="edgeStyle=orthogonalEdgeStyle;rounded=0;orthogonalLoop=1;jettySize=auto;html=1;exitX=0;exitY=0.5;exitDx=0;exitDy=0;" edge="1" parent="5RmNxxyLQUuVd_kvsn41-15">
          <mxGeometry relative="1" as="geometry">
            <mxPoint x="-200" y="-130" as="targetPoint" />
            <mxPoint y="65.00000000000023" as="sourcePoint" />
          </mxGeometry>
        </mxCell>
        <mxCell id="5RmNxxyLQUuVd_kvsn41-21" style="edgeStyle=orthogonalEdgeStyle;rounded=0;orthogonalLoop=1;jettySize=auto;html=1;exitX=1;exitY=0.5;exitDx=0;exitDy=0;" edge="1" parent="5RmNxxyLQUuVd_kvsn41-15">
          <mxGeometry relative="1" as="geometry">
            <mxPoint x="440" y="-130" as="targetPoint" />
            <mxPoint x="240" y="65.00000000000023" as="sourcePoint" />
          </mxGeometry>
        </mxCell>
      </root>
    </mxGraphModel>
  </diagram>
</mxfile>
